<svg xmlns="http://www.w3.org/2000/svg" xmlns:xlink="http://www.w3.org/1999/xlink" width="22" height="22" viewBox="0 0 62.544 59.401">
  <defs>
    <clipPath id="clip-path">
      <path id="Trazado_14170" data-name="Trazado 14170" d="M7853.734,2118.1c-15.8,2.13-27.54,11.779-26.227,21.549,5.435,40.322,63.64,30.136,57.321-7.143-.028-.19-.061-.378-.094-.565a11.161,11.161,0,0,0-.28-1.391c-2.051-7.714-12.178-12.87-24.542-12.869a46.36,46.36,0,0,0-6.178.419" fill="none"/>
    </clipPath>
    <linearGradient id="linear-gradient" x1="-36.378" y1="160.072" x2="-36.371" y2="160.072" gradientUnits="objectBoundingBox">
      <stop offset="0" stop-color="#f6e77e"/>
      <stop offset="0.032" stop-color="#f6e77e"/>
      <stop offset="0.639" stop-color="#ecb748"/>
      <stop offset="1" stop-color="#e89f2e"/>
    </linearGradient>
    <clipPath id="clip-path-2">
      <rect id="Rectángulo_6375" data-name="Rectángulo 6375" width="57.901" height="35.52" transform="translate(7827.398 2130.024)" fill="none"/>
    </clipPath>
    <clipPath id="clip-path-3">
      <rect id="Rectángulo_6376" data-name="Rectángulo 6376" width="56.718" height="17.935" transform="translate(7827.702 2117.677)" fill="none"/>
    </clipPath>
    <clipPath id="clip-path-4">
      <path id="Trazado_14173" data-name="Trazado 14173" d="M7827.5,2139.758v0Zm18.3,21.658c-8.831-3.421-14.513-11.226-16-21.974-1.151-8.369,9.922-17.06,24.176-19.032,7.219-1,14.21-.215,19.685,2.207,5.1,2.257,8.211,5.648,8.75,9.549.006.038.011.075.019.114a31.752,31.752,0,0,1,.512,4.177,23.775,23.775,0,0,1-8.592,20.23,29.315,29.315,0,0,1-18.585,6.541,27.623,27.623,0,0,1-9.963-1.812m7.539-45.594c-16.726,2.314-28.821,12.327-28.24,23.1.021.382.058.768.111,1.15h0c1.728,12.491,8.446,21.6,18.917,25.659a34.075,34.075,0,0,0,33.183-5.487c8.413-7,11.847-17.216,9.68-28.774-.788-5.525-4.855-10.173-11.457-13.093a38.686,38.686,0,0,0-15.528-3.022,48.664,48.664,0,0,0-6.666.464" fill="none"/>
    </clipPath>
    <linearGradient id="linear-gradient-2" x1="-35.96" y1="174.963" x2="-35.953" y2="174.963" gradientUnits="objectBoundingBox">
      <stop offset="0" stop-color="#f1c73d"/>
      <stop offset="0.039" stop-color="#f1c73d"/>
      <stop offset="0.259" stop-color="#e89f2e"/>
      <stop offset="0.331" stop-color="#dc762b"/>
      <stop offset="0.451" stop-color="#d06b26"/>
      <stop offset="0.665" stop-color="#b1501a"/>
      <stop offset="0.721" stop-color="#a84817"/>
      <stop offset="0.836" stop-color="#aa4917"/>
      <stop offset="0.888" stop-color="#b1501a"/>
      <stop offset="0.928" stop-color="#be5b1f"/>
      <stop offset="0.961" stop-color="#d06b26"/>
      <stop offset="0.977" stop-color="#dc762b"/>
      <stop offset="0.986" stop-color="#dc782b"/>
      <stop offset="0.992" stop-color="#df802b"/>
      <stop offset="0.997" stop-color="#e38f2c"/>
      <stop offset="1" stop-color="#e89f2e"/>
    </linearGradient>
    <clipPath id="clip-path-5">
      <path id="Trazado_14174" data-name="Trazado 14174" d="M7884.386,2129.552a2.32,2.32,0,0,0-1.977,2.612c1.159,8.316-9.916,17.056-24.175,19.03s-27.28-3.411-28.434-11.754a2.315,2.315,0,0,0-4.606.44c0,.065.009.13.018.2,1.549,11.2,16.334,18.1,33.656,15.706s29.684-13.058,28.129-24.253a2.316,2.316,0,0,0-2.292-2,2.141,2.141,0,0,0-.319.023" fill="none"/>
    </clipPath>
    <linearGradient id="linear-gradient-3" x1="-37.173" y1="321.517" x2="-37.165" y2="321.517" xlink:href="#linear-gradient-2"/>
    <clipPath id="clip-path-6">
      <path id="Trazado_14175" data-name="Trazado 14175" d="M7835.48,2116.525a1.817,1.817,0,1,0,3,2.046,8.586,8.586,0,0,1,7.187-3.748h.082a1.818,1.818,0,0,0,.02-3.636l-.213,0a12.274,12.274,0,0,0-10.08,5.339" fill="none"/>
    </clipPath>
    <linearGradient id="linear-gradient-4" x1="-190.731" y1="1164.28" x2="-190.691" y2="1164.28" xlink:href="#linear-gradient-2"/>
    <clipPath id="clip-path-7">
      <path id="Trazado_14176" data-name="Trazado 14176" d="M7854.892,2109.412a1.818,1.818,0,0,0,1.409,3.352l.06-.026a8.58,8.58,0,0,1,8.069.774,1.818,1.818,0,0,0,2.016-3.027,11.883,11.883,0,0,0-6.686-2.042,12.625,12.625,0,0,0-4.868.969" fill="none"/>
    </clipPath>
    <linearGradient id="linear-gradient-5" x1="-175.678" y1="1720.24" x2="-175.642" y2="1720.24" xlink:href="#linear-gradient-2"/>
    <clipPath id="clip-path-8">
      <path id="Trazado_14181" data-name="Trazado 14181" d="M7845.836,2121.925l-11.4,3.863a2.233,2.233,0,0,0-1.4,2.832l1.789,5.276a2.233,2.233,0,0,0,2.831,1.4l11.4-3.863a2.234,2.234,0,0,0,1.4-2.832l-1.788-5.275a2.232,2.232,0,0,0-2.834-1.4" fill="none"/>
    </clipPath>
    <clipPath id="clip-path-9">
      <path id="Trazado_14184" data-name="Trazado 14184" d="M7871.217,2118.219l-12.032.149a2.234,2.234,0,0,0-2.206,2.261l.069,5.57a2.234,2.234,0,0,0,2.261,2.205l12.032-.149a2.231,2.231,0,0,0,2.205-2.26l-.069-5.571a2.232,2.232,0,0,0-2.231-2.205h-.029" fill="none"/>
    </clipPath>
  </defs>
  <g id="Grupo_21108" data-name="Grupo 21108" transform="translate(-7825.079 -2108.443)">
    <g id="Grupo_21084" data-name="Grupo 21084">
      <g id="Grupo_21083" data-name="Grupo 21083" clip-path="url(#clip-path)">
        <rect id="Rectángulo_6374" data-name="Rectángulo 6374" width="64.953" height="62.29" transform="translate(7826.193 2117.683)" fill="url(#linear-gradient)"/>
      </g>
    </g>
    <g id="Grupo_21091" data-name="Grupo 21091">
      <g id="Grupo_21087" data-name="Grupo 21087" opacity="0.3">
        <g id="Grupo_21086" data-name="Grupo 21086">
          <g id="Grupo_21085" data-name="Grupo 21085" clip-path="url(#clip-path-2)">
            <path id="Trazado_14171" data-name="Trazado 14171" d="M7827.5,2139.758a13.2,13.2,0,0,1,2.872-9.733c6.738,29.96,44.978,27.957,54.867,6.157,2.043,34.143-52.352,42.484-57.739,3.576" fill="#570000"/>
          </g>
        </g>
      </g>
      <g id="Grupo_21090" data-name="Grupo 21090" opacity="0.6">
        <g id="Grupo_21089" data-name="Grupo 21089">
          <g id="Grupo_21088" data-name="Grupo 21088" clip-path="url(#clip-path-3)">
            <path id="Trazado_14172" data-name="Trazado 14172" d="M7884.42,2130.459l-3.8.451c-4.742-6.522-16.183-10.122-28.836-8.369-11.051,1.531-20.1,6.734-24.078,13.07,1.87-8.229,12.408-15.622,25.954-17.5,15.032-2.078,28.348,3.384,30.764,12.343" fill="#fff"/>
          </g>
        </g>
      </g>
    </g>
    <g id="Grupo_21093" data-name="Grupo 21093">
      <g id="Grupo_21092" data-name="Grupo 21092" clip-path="url(#clip-path-4)">
        <rect id="Rectángulo_6377" data-name="Rectángulo 6377" width="66.548" height="56.857" transform="translate(7822.569 2115.428) rotate(-2.048)" fill="url(#linear-gradient-2)"/>
      </g>
    </g>
    <g id="Grupo_21095" data-name="Grupo 21095">
      <g id="Grupo_21094" data-name="Grupo 21094" clip-path="url(#clip-path-5)">
        <rect id="Rectángulo_6378" data-name="Rectángulo 6378" width="64.407" height="30.896" transform="matrix(0.999, -0.036, 0.036, 0.999, 7824.106, 2129.566)" fill="url(#linear-gradient-3)"/>
      </g>
    </g>
    <g id="Grupo_21097" data-name="Grupo 21097">
      <g id="Grupo_21096" data-name="Grupo 21096" clip-path="url(#clip-path-6)">
        <rect id="Rectángulo_6379" data-name="Rectángulo 6379" width="12.909" height="8.56" transform="translate(7834.667 2111.193) rotate(-1.736)" fill="url(#linear-gradient-4)"/>
      </g>
    </g>
    <g id="Grupo_21099" data-name="Grupo 21099">
      <g id="Grupo_21098" data-name="Grupo 21098" clip-path="url(#clip-path-7)">
        <rect id="Rectángulo_6380" data-name="Rectángulo 6380" width="14.122" height="5.795" transform="matrix(1, -0.03, 0.03, 1, 7853.379, 2108.448)" fill="url(#linear-gradient-5)"/>
      </g>
    </g>
    <g id="Grupo_21100" data-name="Grupo 21100">
      <path id="Trazado_14177" data-name="Trazado 14177" d="M7870.289,2128.486s-5.324,8.121-21.041,8.827c-7.858.352-6.7,5.185-1.961,8.465a14.823,14.823,0,0,0,22.148-7c2.028-5.234,4.026-11.707.854-10.3" fill="#570000"/>
      <path id="Trazado_14178" data-name="Trazado 14178" d="M7864.681,2139.729a6.411,6.411,0,0,0-6.656,2.462,9.129,9.129,0,0,0-8.25-.055c-1.465,1.621,1.828,5.349,8.051,4.12a10.124,10.124,0,0,0,7.368-5.547.689.689,0,0,0-.513-.98" fill="#9b2244"/>
      <path id="Trazado_14179" data-name="Trazado 14179" d="M7849.059,2131.431l-11.4,3.862a2.231,2.231,0,0,1-2.831-1.4l-1.789-5.275a2.235,2.235,0,0,1,1.4-2.833l11.4-3.862a2.233,2.233,0,0,1,2.832,1.4l1.788,5.275a2.233,2.233,0,0,1-1.4,2.832" fill="#1e1515"/>
    </g>
    <g id="Grupo_21102" data-name="Grupo 21102">
      <g id="Grupo_21101" data-name="Grupo 21101" clip-path="url(#clip-path-8)">
        <path id="Trazado_14180" data-name="Trazado 14180" d="M7837.321,2137.871l4.017-1.361.458-14.369-4.016,1.361Z" fill="#fff"/>
      </g>
    </g>
    <g id="Grupo_21103" data-name="Grupo 21103">
      <path id="Trazado_14182" data-name="Trazado 14182" d="M7871.341,2128.255l-12.032.149a2.233,2.233,0,0,1-2.261-2.205l-.069-5.57a2.234,2.234,0,0,1,2.206-2.261l12.032-.149a2.232,2.232,0,0,1,2.26,2.205l.07,5.57a2.233,2.233,0,0,1-2.206,2.261" fill="#1e1515"/>
    </g>
    <g id="Grupo_21105" data-name="Grupo 21105">
      <g id="Grupo_21104" data-name="Grupo 21104" clip-path="url(#clip-path-9)">
        <path id="Trazado_14183" data-name="Trazado 14183" d="M7858.188,2130.75l4.24-.053,4.879-13.523-4.241.053Z" fill="#fff"/>
      </g>
    </g>
    <g id="Grupo_21107" data-name="Grupo 21107">
      <g id="Grupo_21106" data-name="Grupo 21106">
        <path id="Trazado_14185" data-name="Trazado 14185" d="M7849.4,2127.092l-1.4-1.434a11.418,11.418,0,0,1,10.213-2.688l-.484,1.941A9.457,9.457,0,0,0,7849.4,2127.092Z" fill="#1e1515"/>
      </g>
    </g>
  </g>
</svg>
